<?xml version="1.0" encoding="utf-8"?>
<!-- Generator: Adobe Illustrator 30.2.1, SVG Export Plug-In . SVG Version: 9.03 Build 0)  -->
<svg version="1.1" id="レイヤー_1" xmlns="http://www.w3.org/2000/svg" xmlns:xlink="http://www.w3.org/1999/xlink" x="0px"
	 y="0px" viewBox="0 0 640 640" style="enable-background:new 0 0 640 640;" xml:space="preserve">
<g>
	<path style="fill:#F5A02D;" d="M183.47,234.73c1.02-2.75,2.44-4.68,4.27-5.8c1.83-1.12,4.47-1.68,7.93-1.68
		c3.76,0,6.41,0.91,7.93,2.75c1.53,1.83,2.29,5.59,2.29,11.29c0,9.97,0.1,19.25,0.31,27.84c0.2,8.59,0.3,12.33,0.3,11.21
		c0,4.78-0.81,8.01-2.44,9.69c-1.63,1.68-4.53,2.52-8.69,2.52c-6.71,0-11.09-4.78-13.12-14.34c-0.71-2.85-1.27-5.03-1.68-6.56
		c-1.93-7.63-6.56-13.86-13.88-18.69c-7.32-4.83-15.92-7.25-25.78-7.25c-18,0-32.44,6.58-43.32,19.74
		C86.7,278.6,81.26,296.25,81.26,318.4c0,22.15,5.52,39.8,16.55,52.96c11.03,13.16,25.6,19.73,43.7,19.73c5.9,0,11.9-0.84,18-2.52
		c6.1-1.68,12.1-4.2,18-7.55c2.75-1.42,6.51-3.84,11.29-7.25c4.78-3.41,8.18-5.11,10.22-5.11c3.15,0,5.82,1.04,8.01,3.13
		c2.19,2.09,3.28,4.65,3.28,7.7s-1.2,5.98-3.58,8.78c-2.39,2.8-6.84,6.25-13.35,10.34c-8.54,5.63-17.14,9.78-25.78,12.44
		c-8.64,2.66-17.75,3.99-27.31,3.99c-25.12,0-45.87-8.87-62.24-26.62C61.68,370.67,53.5,347.97,53.5,320.3
		c0-27.36,8.29-50.09,24.86-68.19c16.58-18.1,37.42-27.15,62.54-27.15c6.71,0,13.55,0.81,20.52,2.44
		C168.39,229.03,175.74,231.47,183.47,234.73z"/>
	<path style="fill:#5FC3D2;" d="M284.76,354.32c0,12.81,2.69,22.17,8.08,28.07c5.39,5.9,13.93,8.85,25.63,8.85
		c11.08,0,20.57-3.51,28.45-10.54c7.88-7.03,11.82-15.84,11.82-26.43v-63.1h-20.9c-3.97,0-6.84-0.83-8.62-2.5
		c-1.78-1.67-2.67-4.27-2.67-7.8c0-3.84,0.97-6.66,2.9-8.48c1.93-1.82,5.03-2.73,9.31-2.73h32.49c3.86,0,6.58,0.84,8.16,2.52
		c1.58,1.68,2.37,5.77,2.37,12.28V389.1h7.02c4.98,0,8.57,0.82,10.76,2.44c2.19,1.63,3.28,4.32,3.28,8.09
		c0,3.66-1.04,6.41-3.13,8.24c-2.09,1.83-5.11,2.75-9.08,2.75h-23.19c-2.75,0-4.88-0.56-6.41-1.68c-1.53-1.12-2.29-2.64-2.29-4.58
		v-10.37c-9.76,7.53-18.13,12.69-25.09,15.48c-6.97,2.8-14.32,4.2-22.04,4.2c-16.78,0-29.37-4.46-37.76-13.36
		c-8.39-8.91-12.59-22.37-12.59-40.4v-68.73h-3.2c-6.92,0-11.65-0.81-14.19-2.42c-2.54-1.62-3.81-4.44-3.81-8.48
		c0-3.53,0.99-6.18,2.97-7.95c1.98-1.77,5.06-2.65,9.23-2.65h23.04c3.56,0,6.03,0.71,7.4,2.14c1.37,1.43,2.06,4.58,2.06,9.46V354.32
		z"/>
	<path style="fill:#69BE78;" d="M458.67,346.85c0.81,14.69,5.77,26.05,14.87,34.06c9.1,8.01,21.53,12.01,37.3,12.01
		c11.9,0,24.87-3.18,38.9-9.53c14.03-6.35,22.52-9.53,25.48-9.53c3.05,0,5.59,0.97,7.63,2.9c2.03,1.93,3.05,4.32,3.05,7.17
		c0,2.95-1.07,5.64-3.2,8.08c-2.14,2.44-5.54,4.81-10.22,7.14c-10.17,4.95-20.67,8.73-31.5,11.36c-10.83,2.62-21.58,3.94-32.26,3.94
		c-23.19,0-41.75-6.69-55.68-20.06c-13.93-13.37-20.9-31.09-20.9-53.16c0-22.47,7.37-40.68,22.12-54.61
		c14.75-13.93,33.97-20.9,57.66-20.9c21.46,0,39.25,6.51,53.39,19.53c14.13,13.02,21.2,28.78,21.2,47.29c0,5.7-1.2,9.51-3.59,11.44
		c-2.39,1.93-8.87,2.9-19.45,2.9h-2.29H458.67z M459.43,326.86h99.31c-1.53-12.1-6.59-21.84-15.18-29.21
		c-8.6-7.37-19.15-11.06-31.65-11.06c-13.53,0-24.92,3.56-34.17,10.68C468.48,304.39,462.38,314.26,459.43,326.86z"/>
</g>
</svg>
