<?xml version="1.0" encoding="utf-8"?>
<!-- Generator: Adobe Illustrator 30.2.1, SVG Export Plug-In . SVG Version: 9.03 Build 0)  -->
<svg version="1.1" id="レイヤー_1" xmlns="http://www.w3.org/2000/svg" xmlns:xlink="http://www.w3.org/1999/xlink" x="0px"
	 y="0px" viewBox="0 0 768 256" style="enable-background:new 0 0 768 256;" xml:space="preserve">
<g>
	<path style="fill:#F5A02D;" d="M360.21,52.12c0.89-2.41,2.14-4.1,3.75-5.09c1.61-0.98,3.93-1.47,6.96-1.47
		c3.3,0,5.62,0.8,6.96,2.41c1.34,1.61,2.01,4.91,2.01,9.91c0,8.75,0.09,16.9,0.27,24.44c0.18,7.54,0.27,10.83,0.27,9.84
		c0,4.2-0.72,7.03-2.14,8.5c-1.43,1.47-3.97,2.21-7.63,2.21c-5.89,0-9.73-4.2-11.52-12.59c-0.63-2.5-1.12-4.42-1.47-5.76
		c-1.7-6.7-5.76-12.16-12.19-16.4c-6.43-4.24-13.97-6.36-22.63-6.36c-15.8,0-28.48,5.77-38.03,17.32
		c-9.55,11.55-14.33,27.04-14.33,46.48c0,19.44,4.84,34.94,14.53,46.49c9.69,11.55,22.47,17.32,38.37,17.32
		c5.18,0,10.45-0.74,15.8-2.21s10.62-3.68,15.8-6.63c2.41-1.25,5.71-3.37,9.91-6.36c4.2-2.99,7.19-4.49,8.97-4.49
		c2.77,0,5.11,0.92,7.03,2.75c1.92,1.83,2.88,4.08,2.88,6.76s-1.05,5.25-3.15,7.7c-2.1,2.46-6.01,5.48-11.72,9.08
		c-7.5,4.94-15.04,8.58-22.63,10.92c-7.59,2.33-15.58,3.5-23.97,3.5c-22.05,0-40.26-7.79-54.64-23.37
		c-14.38-15.58-21.56-35.51-21.56-59.79c0-24.01,7.28-43.97,21.83-59.86c14.55-15.89,32.85-23.84,54.9-23.84
		c5.89,0,11.9,0.72,18.01,2.14C346.97,47.12,353.42,49.26,360.21,52.12z"/>
	<path style="fill:#5FC3D2;" d="M449.12,157.11c0,11.25,2.36,19.46,7.1,24.64c4.73,5.18,12.23,7.77,22.5,7.77
		c9.73,0,18.05-3.08,24.97-9.25c6.92-6.17,10.38-13.9,10.38-23.2v-55.39h-18.35c-3.48,0-6-0.73-7.57-2.19
		c-1.56-1.46-2.34-3.75-2.34-6.85c0-3.37,0.85-5.85,2.54-7.45c1.69-1.59,4.42-2.39,8.17-2.39h28.52c3.39,0,5.78,0.74,7.16,2.21
		c1.38,1.47,2.08,5.07,2.08,10.78v91.86h6.16c4.37,0,7.52,0.72,9.44,2.14c1.92,1.43,2.88,3.8,2.88,7.1c0,3.21-0.92,5.62-2.75,7.23
		c-1.83,1.61-4.49,2.41-7.97,2.41h-20.35c-2.41,0-4.29-0.49-5.62-1.47c-1.34-0.98-2.01-2.32-2.01-4.02v-9.11
		c-8.57,6.61-15.91,11.14-22.03,13.59c-6.12,2.45-12.57,3.68-19.35,3.68c-14.73,0-25.78-3.91-33.14-11.73S428.5,177.83,428.5,162
		v-60.34h-2.81c-6.07,0-10.22-0.71-12.45-2.13c-2.23-1.42-3.35-3.9-3.35-7.45c0-3.1,0.87-5.43,2.61-6.98
		c1.74-1.55,4.44-2.33,8.1-2.33h20.22c3.12,0,5.29,0.63,6.49,1.87c1.21,1.25,1.81,4.02,1.81,8.3V157.11z"/>
	<path style="fill:#69BE78;" d="M601.79,150.55c0.71,12.9,5.07,22.87,13.06,29.9c7.99,7.03,18.9,10.55,32.74,10.55
		c10.45,0,21.83-2.79,34.15-8.37c12.32-5.58,19.77-8.37,22.36-8.37c2.68,0,4.91,0.85,6.7,2.54c1.79,1.7,2.68,3.79,2.68,6.29
		c0,2.59-0.94,4.95-2.81,7.09c-1.88,2.14-4.87,4.23-8.97,6.26c-8.93,4.34-18.15,7.67-27.65,9.97c-9.51,2.3-18.95,3.46-28.32,3.46
		c-20.35,0-36.65-5.87-48.88-17.61c-12.23-11.74-18.35-27.29-18.35-46.67c0-19.73,6.47-35.71,19.42-47.94
		c12.94-12.23,29.82-18.35,50.62-18.35c18.83,0,34.46,5.71,46.87,17.14C707.8,107.87,714,121.71,714,137.96
		c0,5-1.05,8.35-3.15,10.04c-2.1,1.7-7.79,2.54-17.07,2.54h-2.01H601.79z M602.46,133h87.18c-1.34-10.62-5.78-19.17-13.32-25.64
		c-7.55-6.47-16.81-9.71-27.79-9.71c-11.88,0-21.87,3.13-30,9.37C610.4,113.27,605.04,121.93,602.46,133z"/>
</g>
</svg>
