<?xml version="1.0" encoding="utf-8"?>
<!-- Generator: Adobe Illustrator 30.2.1, SVG Export Plug-In . SVG Version: 9.03 Build 0)  -->
<svg version="1.1" id="レイヤー_1" xmlns="http://www.w3.org/2000/svg" xmlns:xlink="http://www.w3.org/1999/xlink" x="0px"
	 y="0px" viewBox="0 0 768 256" style="enable-background:new 0 0 768 256;" xml:space="preserve">
<path style="fill:#4F4F4F;" d="M425.13,50.95c0.9-2.45,2.17-4.16,3.81-5.17c1.63-0.99,3.99-1.49,7.06-1.49
	c3.35,0,5.7,0.81,7.06,2.45c1.36,1.63,2.04,4.98,2.04,10.06c0,8.88,0.09,17.15,0.27,24.81c0.18,7.65,0.27,10.99,0.27,9.99
	c0,4.26-0.73,7.14-2.17,8.63c-1.45,1.49-4.03,2.24-7.74,2.24c-5.98,0-9.88-4.26-11.69-12.78c-0.64-2.54-1.14-4.49-1.49-5.85
	c-1.73-6.8-5.85-12.34-12.37-16.65c-6.53-4.3-14.18-6.46-22.97-6.46c-16.04,0-28.91,5.86-38.6,17.58
	c-9.69,11.72-14.55,27.45-14.55,47.18s4.91,35.47,14.75,47.19c9.84,11.72,22.81,17.58,38.95,17.58c5.26,0,10.61-0.75,16.04-2.24
	c5.43-1.49,10.78-3.74,16.04-6.73c2.45-1.27,5.8-3.42,10.06-6.46s7.3-4.56,9.11-4.56c2.81,0,5.19,0.93,7.14,2.79
	c1.95,1.86,2.92,4.14,2.92,6.86s-1.07,5.33-3.2,7.82c-2.13,2.5-6.1,5.56-11.9,9.22c-7.61,5.01-15.27,8.71-22.97,11.08
	c-7.7,2.37-15.81,3.55-24.33,3.55c-22.38,0-40.87-7.91-55.46-23.72c-14.6-15.81-21.88-36.04-21.88-60.69
	c0-24.37,7.39-44.63,22.16-60.76s33.34-24.2,55.73-24.2c5.98,0,12.08,0.73,18.28,2.17C411.69,45.88,418.24,48.05,425.13,50.95z"/>
<path style="fill:#4F4F4F;" d="M496.9,162.3c0,8.72,1.83,15.08,5.5,19.09c3.66,4.01,9.48,6.02,17.43,6.02
	c7.54,0,13.98-2.39,19.35-7.17c5.36-4.78,8.04-10.77,8.04-17.97v-42.91h-14.22c-2.7,0-4.65-0.57-5.86-1.7
	c-1.21-1.13-1.81-2.91-1.81-5.31c0-2.61,0.66-4.53,1.97-5.77c1.31-1.23,3.42-1.85,6.33-1.85h22.1c2.63,0,4.48,0.57,5.55,1.71
	c1.07,1.14,1.61,3.93,1.61,8.35v71.17h4.77c3.39,0,5.83,0.56,7.31,1.66c1.49,1.11,2.23,2.94,2.23,5.5c0,2.49-0.71,4.35-2.13,5.6
	c-1.42,1.25-3.48,1.87-6.17,1.87h-15.77c-1.87,0-3.32-0.38-4.35-1.14c-1.04-0.76-1.56-1.8-1.56-3.11v-7.06
	c-6.64,5.12-12.33,8.63-17.07,10.53c-4.74,1.9-9.74,2.85-14.99,2.85c-11.41,0-19.97-3.03-25.68-9.09
	c-5.7-6.06-8.55-15.22-8.55-27.48v-46.75h-2.18c-4.7,0-7.92-0.55-9.65-1.65c-1.73-1.1-2.6-3.02-2.6-5.77c0-2.4,0.67-4.21,2.02-5.41
	s3.44-1.81,6.28-1.81h15.67c2.42,0,4.1,0.49,5.03,1.45c0.94,0.97,1.4,3.11,1.4,6.43L496.9,162.3L496.9,162.3z"/>
<path style="fill:#4F4F4F;" d="M615.19,157.22c0.55,9.99,3.93,17.72,10.12,23.17c6.19,5.45,14.64,8.17,25.37,8.17
	c8.1,0,16.91-2.16,26.46-6.48c9.54-4.32,15.32-6.48,17.32-6.48c2.08,0,3.8,0.66,5.19,1.97c1.39,1.32,2.08,2.94,2.08,4.87
	c0,2.01-0.73,3.84-2.18,5.49c-1.46,1.66-3.77,3.28-6.95,4.85c-6.92,3.36-14.06,5.94-21.42,7.72c-7.37,1.78-14.68,2.68-21.94,2.68
	c-15.77,0-28.39-4.55-37.87-13.64c-9.48-9.1-14.22-21.14-14.22-36.16c0-15.29,5.01-27.67,15.05-37.14
	c10.03-9.48,23.1-14.22,39.22-14.22c14.59,0,26.7,4.42,36.31,13.28c9.6,8.86,14.4,19.58,14.4,32.17c0,3.87-0.81,6.47-2.44,7.78
	c-1.63,1.32-6.04,1.97-13.23,1.97h-1.56L615.19,157.22L615.19,157.22z M615.71,143.63h67.54c-1.04-8.23-4.48-14.85-10.32-19.86
	c-5.85-5.01-13.02-7.52-21.53-7.52c-9.2,0-16.94,2.42-23.24,7.26C621.86,128.34,617.7,135.05,615.71,143.63z"/>
<g>
	<path style="fill:#4F4F4F;" d="M496.87,76.57c-1.71,0.64-5.09,1.62-9.06,1.62c-4.47,0-8.15-1.13-11.01-3.89
		c-2.54-2.44-4.1-6.35-4.1-10.94c0.01-8.79,6.05-15.22,15.92-15.22c3.4,0,6.1,0.75,7.37,1.35l-0.95,3.1
		c-1.57-0.71-3.53-1.26-6.51-1.26c-7.15,0-11.83,4.45-11.83,11.83c0,7.46,4.48,11.88,11.37,11.88c2.49,0,4.18-0.35,5.05-0.79v-8.77
		h-5.96v-3.04h9.7V76.57z"/>
	<path style="fill:#4F4F4F;" d="M513.04,50.78c0,1.31-0.92,2.39-2.44,2.39c-1.39,0-2.32-1.08-2.32-2.39c0-1.32,0.98-2.39,2.39-2.39
		C512.1,48.39,513.03,49.44,513.04,50.78z M508.75,77.89V56.76h3.82v21.13H508.75z"/>
	<path style="fill:#4F4F4F;" d="M526.57,56.76l4.14,11.85c0.71,1.96,1.26,3.7,1.73,5.46h0.11c0.48-1.75,1.09-3.51,1.77-5.46
		l4.13-11.85h4.02l-8.32,21.13h-3.67l-8.05-21.13H526.57z"/>
	<path style="fill:#4F4F4F;" d="M553.94,68.02c0.08,5.2,3.37,7.34,7.23,7.34c2.75,0,4.43-0.49,5.85-1.08L567.7,77
		c-1.34,0.61-3.69,1.35-7.05,1.35c-6.49,0-10.4-4.33-10.4-10.67c0-6.4,3.77-11.41,9.94-11.41c6.89,0,8.7,6.05,8.7,9.94
		c0,0.81-0.05,1.38-0.13,1.8H553.94z M565.19,65.25c0.04-2.42-0.99-6.22-5.3-6.22c-3.92,0-5.59,3.55-5.9,6.22H565.19z"/>
	<path style="fill:#4F4F4F;" d="M595.18,62.47c0-2.21-0.07-3.96-0.17-5.71h3.34l0.2,3.4h0.11c1.18-2.01,3.15-3.88,6.67-3.88
		c2.86,0,5.05,1.74,5.96,4.24h0.09c0.68-1.2,1.51-2.12,2.38-2.75c1.28-0.96,2.66-1.49,4.65-1.49c2.82,0,6.98,1.82,6.98,9.17v12.45
		h-3.75V65.94c0-4.09-1.51-6.52-4.59-6.52c-2.2,0-3.89,1.6-4.57,3.46c-0.18,0.56-0.31,1.24-0.31,1.93v13.08h-3.75V65.21
		c0-3.37-1.49-5.79-4.39-5.79c-2.39,0-4.15,1.91-4.79,3.84c-0.19,0.56-0.29,1.23-0.29,1.89v12.74h-3.75V62.47z"/>
	<path style="fill:#4F4F4F;" d="M639.9,68.02c0.08,5.2,3.37,7.34,7.23,7.34c2.75,0,4.43-0.49,5.85-1.08l0.67,2.73
		c-1.34,0.61-3.69,1.35-7.05,1.35c-6.49,0-10.4-4.33-10.4-10.67c0-6.4,3.77-11.41,9.94-11.41c6.89,0,8.7,6.05,8.7,9.94
		c0,0.81-0.05,1.38-0.13,1.8H639.9z M651.15,65.25c0.04-2.42-0.99-6.22-5.3-6.22c-3.92,0-5.59,3.55-5.9,6.22H651.15z"/>
	<path style="fill:#4F4F4F;" d="M692.86,77.89l-0.34-2.67h-0.11c-1.16,1.65-3.44,3.15-6.47,3.15c-4.27,0-6.46-3.03-6.46-6.06
		c0-5.12,4.54-7.93,12.7-7.87v-0.45c0-1.72-0.48-4.9-4.81-4.88c-1.97,0-4.02,0.59-5.51,1.58L681,58.13
		c1.75-1.13,4.31-1.85,6.98-1.85c6.46,0,8.04,4.42,8.04,8.65v7.91c0,1.81,0.08,3.61,0.32,5.06H692.86z M692.26,67.1
		c-4.16-0.09-8.92,0.66-8.92,4.75c0,2.52,1.66,3.68,3.59,3.68c2.78,0,4.54-1.75,5.15-3.54c0.13-0.41,0.18-0.84,0.18-1.21V67.1z"/>
</g>
<circle style="fill:#F5A02D;" cx="150.5" cy="128" r="96.73"/>
<circle style="fill:#5FC3D2;" cx="228" cy="177.89" r="30"/>
</svg>
