<?xml version="1.0" encoding="utf-8"?>
<!-- Generator: Adobe Illustrator 30.2.1, SVG Export Plug-In . SVG Version: 9.03 Build 0)  -->
<svg version="1.1" id="レイヤー_1" xmlns="http://www.w3.org/2000/svg" xmlns:xlink="http://www.w3.org/1999/xlink" x="0px"
	 y="0px" viewBox="0 0 640 640" style="enable-background:new 0 0 640 640;" xml:space="preserve">
<path style="fill:#4F4F4F;" d="M218.48,386.11c1.13-3.07,2.72-5.22,4.77-6.48c2.05-1.25,5-1.87,8.86-1.87c4.2,0,7.15,1.02,8.86,3.07
	c1.7,2.05,2.56,6.25,2.56,12.61c0,11.13,0.11,21.5,0.34,31.1c0.23,9.59,0.34,13.78,0.34,12.52c0,5.34-0.92,8.94-2.72,10.82
	c-1.82,1.87-5.05,2.81-9.71,2.81c-7.49,0-12.38-5.34-14.66-16.02c-0.8-3.18-1.43-5.62-1.87-7.33c-2.16-8.52-7.33-15.47-15.51-20.87
	c-8.18-5.39-17.77-8.09-28.79-8.09c-20.1,0-36.24,7.34-48.39,22.04c-12.15,14.7-18.23,34.4-18.23,59.14s6.16,44.46,18.49,59.15
	s28.59,22.04,48.82,22.04c6.59,0,13.3-0.94,20.1-2.81s13.51-4.68,20.1-8.44c3.07-1.59,7.27-4.29,12.61-8.09
	c5.34-3.8,9.15-5.71,11.41-5.71c3.52,0,6.5,1.17,8.94,3.5s3.66,5.19,3.66,8.6c0,3.41-1.34,6.68-4.01,9.8
	c-2.67,3.13-7.65,6.97-14.91,11.55c-9.54,6.29-19.14,10.92-28.79,13.89c-9.66,2.96-19.82,4.45-30.5,4.45
	c-28.06,0-51.23-9.91-69.52-29.73s-27.43-45.18-27.43-76.07c0-30.55,9.26-55.95,27.78-76.16s41.8-30.33,69.85-30.33
	c7.49,0,15.14,0.92,22.92,2.72C201.64,379.74,209.84,382.47,218.48,386.11z"/>
<path style="fill:#4F4F4F;" d="M308.46,525.68c0,10.93,2.29,18.9,6.9,23.93c4.59,5.03,11.88,7.55,21.85,7.55
	c9.45,0,17.53-2.99,24.25-8.98s10.08-13.5,10.08-22.53v-53.79h-17.82c-3.38,0-5.83-0.71-7.35-2.13c-1.51-1.42-2.27-3.64-2.27-6.65
	c0-3.27,0.83-5.68,2.47-7.23c1.64-1.54,4.29-2.32,7.93-2.32h27.7c3.29,0,5.61,0.72,6.95,2.15c1.34,1.43,2.02,4.92,2.02,10.47v89.21
	h5.98c4.24,0,7.3,0.7,9.17,2.08c1.86,1.39,2.8,3.69,2.8,6.9c0,3.12-0.89,5.46-2.67,7.02c-1.78,1.56-4.36,2.34-7.74,2.34h-19.76
	c-2.34,0-4.17-0.48-5.46-1.43c-1.3-0.95-1.95-2.25-1.95-3.9v-8.85c-8.32,6.42-15.45,10.82-21.39,13.2s-12.21,3.57-18.79,3.57
	c-14.3,0-25.04-3.8-32.18-11.39c-7.15-7.59-10.72-19.07-10.72-34.45v-58.6h-2.73c-5.89,0-9.93-0.69-12.09-2.07
	c-2.17-1.38-3.25-3.79-3.25-7.23c0-3.01,0.84-5.27,2.53-6.78c1.69-1.51,4.31-2.26,7.87-2.26h19.64c3.03,0,5.14,0.61,6.3,1.82
	c1.18,1.21,1.76,3.9,1.76,8.06L308.46,525.68L308.46,525.68z"/>
<path style="fill:#4F4F4F;" d="M456.72,519.31c0.69,12.53,4.92,22.21,12.68,29.04c7.76,6.83,18.35,10.25,31.8,10.25
	c10.15,0,21.2-2.71,33.16-8.13c11.96-5.42,19.2-8.13,21.71-8.13c2.6,0,4.77,0.83,6.51,2.47c1.74,1.65,2.6,3.68,2.6,6.11
	c0,2.52-0.91,4.81-2.73,6.89c-1.83,2.08-4.73,4.11-8.71,6.08c-8.67,4.21-17.63,7.45-26.85,9.68c-9.24,2.23-18.4,3.36-27.5,3.36
	c-19.76,0-35.59-5.7-47.47-17.1c-11.88-11.4-17.82-26.5-17.82-45.32c0-19.16,6.28-34.68,18.86-46.56
	c12.57-11.88,28.96-17.82,49.16-17.82c18.29,0,33.47,5.55,45.52,16.65c12.03,11.1,18.05,24.54,18.05,40.32
	c0,4.86-1.02,8.11-3.06,9.75c-2.04,1.65-7.57,2.47-16.58,2.47h-1.95L456.72,519.31L456.72,519.31z M457.37,502.27h84.66
	c-1.3-10.31-5.61-18.62-12.94-24.9c-7.33-6.28-16.32-9.43-26.99-9.43c-11.54,0-21.24,3.04-29.13,9.1
	C465.08,483.11,459.88,491.52,457.37,502.27z"/>
<g>
	<path style="fill:#4F4F4F;" d="M308.41,418.22c-2.14,0.81-6.38,2.03-11.35,2.03c-5.6,0-10.21-1.42-13.81-4.88
		c-3.18-3.06-5.14-7.96-5.13-13.71c0.02-11.01,7.59-19.07,19.96-19.07c4.27,0,7.65,0.94,9.23,1.69l-1.19,3.89
		c-1.97-0.9-4.43-1.58-8.15-1.58c-8.96,0-14.83,5.58-14.83,14.82c0,9.35,5.61,14.89,14.25,14.89c3.12,0,5.23-0.44,6.34-0.99v-11
		h-7.47v-3.81h12.16V418.22z"/>
	<path style="fill:#4F4F4F;" d="M328.68,385.89c0,1.64-1.15,2.99-3.06,2.99c-1.74,0-2.91-1.36-2.91-2.99c0-1.65,1.23-3,3-3
		C327.5,382.89,328.67,384.21,328.68,385.89z M323.3,419.87v-26.49h4.79v26.49H323.3z"/>
	<path style="fill:#4F4F4F;" d="M345.64,393.38l5.2,14.85c0.89,2.45,1.58,4.64,2.17,6.84h0.14c0.61-2.2,1.37-4.4,2.22-6.84
		l5.18-14.85h5.04l-10.42,26.49h-4.6l-10.09-26.49H345.64z"/>
	<path style="fill:#4F4F4F;" d="M379.95,407.5c0.09,6.51,4.23,9.2,9.07,9.2c3.45,0,5.56-0.62,7.34-1.36l0.84,3.42
		c-1.68,0.77-4.63,1.69-8.84,1.69c-8.14,0-13.04-5.42-13.04-13.37c0-8.03,4.73-14.3,12.47-14.3c8.64,0,10.9,7.58,10.9,12.46
		c0,1.01-0.06,1.74-0.17,2.26H379.95z M394.05,404.03c0.05-3.04-1.24-7.8-6.64-7.8c-4.92,0-7.01,4.45-7.4,7.8H394.05z"/>
	<path style="fill:#4F4F4F;" d="M431.65,400.54c0-2.76-0.09-4.96-0.22-7.15h4.19l0.25,4.26H436c1.47-2.52,3.95-4.87,8.36-4.87
		c3.59,0,6.33,2.19,7.47,5.31h0.11c0.85-1.51,1.89-2.65,2.99-3.45c1.6-1.2,3.33-1.86,5.83-1.86c3.54,0,8.75,2.28,8.75,11.49v15.6
		h-4.7v-14.98c0-5.13-1.89-8.17-5.75-8.17c-2.76,0-4.88,2.01-5.73,4.34c-0.23,0.7-0.39,1.56-0.39,2.42v16.4h-4.7v-15.9
		c0-4.22-1.87-7.25-5.51-7.25c-3,0-5.2,2.4-6.01,4.81c-0.24,0.71-0.36,1.55-0.36,2.37v15.97h-4.7V400.54z"/>
	<path style="fill:#4F4F4F;" d="M487.7,407.5c0.09,6.51,4.23,9.2,9.07,9.2c3.45,0,5.56-0.62,7.34-1.36l0.84,3.42
		c-1.68,0.77-4.63,1.69-8.84,1.69c-8.14,0-13.04-5.42-13.04-13.37c0-8.03,4.73-14.3,12.47-14.3c8.64,0,10.9,7.58,10.9,12.46
		c0,1.01-0.06,1.74-0.17,2.26H487.7z M501.8,404.03c0.05-3.04-1.24-7.8-6.64-7.8c-4.92,0-7.01,4.45-7.4,7.8H501.8z"/>
	<path style="fill:#4F4F4F;" d="M554.08,419.87l-0.42-3.35h-0.14c-1.46,2.07-4.31,3.95-8.11,3.95c-5.35,0-8.09-3.8-8.09-7.6
		c0-6.42,5.69-9.94,15.92-9.87v-0.56c0-2.15-0.6-6.14-6.03-6.11c-2.47,0-5.04,0.74-6.9,1.97l-1.09-3.2c2.19-1.42,5.4-2.32,8.74-2.32
		c8.1,0,10.07,5.54,10.07,10.84v9.91c0,2.26,0.1,4.52,0.4,6.34H554.08z M553.34,406.35c-5.21-0.11-11.18,0.83-11.18,5.95
		c0,3.16,2.08,4.61,4.5,4.61c3.49,0,5.69-2.2,6.46-4.44c0.17-0.51,0.23-1.06,0.23-1.52V406.35z"/>
</g>
<circle style="fill:#F5A02D;" cx="331.57" cy="190.39" r="140.87"/>
<circle style="fill:#5FC3D2;" cx="444.44" cy="263.05" r="43.69"/>
</svg>
